# xmcd CD database file
#
# Track frame offsets:
#	150
#	12827
#	29213
#	42549
#	56852
#	69445
#	85550
#	101378
#	110136
#	122632
#	139374
#	151396
#	163645
#	180846
#	190334
#	208463
#	228460
#
# Disc length: 3222 seconds
#
# Revision: 0
# Processed by: cddbd v1.5.1PL0 Copyright (c) Steve Scherf et al.
# Submitted via: CDex 1.51
#
DISCID=f30c9411
DTITLE=Porteña Jazz Band - Volumen 2
DYEAR=1900
DGENRE=Jazz
TTITLE0=Frankie and Johnny
TTITLE1=Blues perezosos
TTITLE2=Dulce muñequita
TTITLE3=El canto
TTITLE4=Blues del Trabajador
TTITLE5=Pantano de las ranitas
TTITLE6=Blues de la reunion
TTITLE7=Mobile Stomp
TTITLE8=Blues terribles
TTITLE9=Estampida
TTITLE10=Skid Da De Dot
TTITLE11=Blues del establo
TTITLE12=Cushion Foot Stomp
TTITLE13=Alegria de Milerberg
TTITLE14=Blues de Atlanta
TTITLE15=Blues del Vagon Patrulla
TTITLE16=Mermelada de Clarinete
EXTD=
EXTT0=
EXTT1=
EXTT2=
EXTT3=
EXTT4=
EXTT5=
EXTT6=
EXTT7=
EXTT8=
EXTT9=
EXTT10=
EXTT11=
EXTT12=
EXTT13=
EXTT14=
EXTT15=
EXTT16=
PLAYORDER=
